<?xml version="1.0" encoding="UTF-8" standalone="no"?>
<!DOCTYPE svg PUBLIC "-//W3C//DTD SVG 1.1//EN" "http://www.w3.org/Graphics/SVG/1.1/DTD/svg11.dtd">
<svg width="100%" height="100%" viewBox="0 0 8000 8000" version="1.1" xmlns="http://www.w3.org/2000/svg" xmlns:xlink="http://www.w3.org/1999/xlink" xml:space="preserve" xmlns:serif="http://www.serif.com/" style="fill-rule:evenodd;clip-rule:evenodd;stroke-linecap:round;stroke-linejoin:round;stroke-miterlimit:1.5;">
    <g transform="matrix(1,0,0,1,200,200)">
        <path d="M7692.77,1015.72C7692.77,827.816 7618.12,647.609 7485.26,514.742C7352.39,381.875 7172.18,307.231 6984.28,307.231C5573.27,307.231 2426.73,307.231 1015.72,307.231C827.816,307.231 647.609,381.875 514.742,514.742C381.875,647.609 307.231,827.816 307.231,1015.72L307.231,6984.28C307.231,7172.18 381.875,7352.39 514.742,7485.26C647.609,7618.12 827.816,7692.77 1015.72,7692.77L6984.28,7692.77C7172.18,7692.77 7352.39,7618.12 7485.26,7485.26C7618.12,7352.39 7692.77,7172.18 7692.77,6984.28C7692.77,5573.27 7692.77,2426.73 7692.77,1015.72ZM6167.66,2423.52C6167.66,2097.55 5902.45,1832.34 5576.48,1832.34L2423.52,1832.34C2097.55,1832.34 1832.34,2097.55 1832.34,2423.52C1832.34,2680.42 1997.1,2899.46 2226.46,2980.81L2226.46,5970.6C2226.46,6079.43 2314.69,6167.66 2423.52,6167.66L5576.48,6167.66C5685.31,6167.66 5773.54,6079.43 5773.54,5970.6L5773.54,2980.81C6002.89,2899.46 6167.66,2680.42 6167.66,2423.52ZM5379.42,5773.54L2620.58,5773.54L2620.58,4719.25C2945.98,5121.61 3443.41,5379.42 4000,5379.42C4556.59,5379.42 5054.02,5121.61 5379.42,4719.25L5379.42,5773.54ZM3605.88,4197.06C3931.86,4197.06 4197.06,3931.86 4197.06,3605.88L4197.06,3014.7L5379.42,3014.7L5379.42,3605.88C5379.42,4366.49 4760.61,4985.3 4000,4985.3C3239.39,4985.3 2620.58,4366.49 2620.58,3605.88L2620.58,3014.7L3014.7,3014.7L3014.7,3605.88C3014.7,3931.86 3279.91,4197.06 3605.88,4197.06ZM5576.54,2620.58L4000,2620.58C3891.17,2620.58 3802.94,2708.81 3802.94,2817.64L3802.94,3605.88C3802.94,3714.54 3714.54,3802.94 3605.88,3802.94C3497.22,3802.94 3408.82,3714.54 3408.82,3605.88L3408.82,2817.64C3408.82,2708.81 3320.59,2620.58 3211.76,2620.58L2423.46,2620.58C2314.84,2620.54 2226.46,2532.17 2226.46,2423.52C2226.46,2314.87 2314.87,2226.46 2423.52,2226.46L5576.48,2226.46C5685.14,2226.46 5773.54,2314.87 5773.54,2423.52C5773.54,2532.17 5685.16,2620.54 5576.54,2620.58ZM1739.15,1867L747.95,1867C713.965,1867 686,1839.04 686,1805.05L686,689.95C686,655.965 713.965,628 747.95,628L1739.15,628C1773.13,628 1801.1,655.965 1801.1,689.95L1801.1,1805.05C1801.1,1839.04 1773.13,1867 1739.15,1867ZM1677.2,1743.1L1677.2,751.9L809.9,751.9L809.9,1743.1L1677.2,1743.1ZM995.75,1361.4L1491.35,1361.4L1491.35,1571L995.75,1571L995.75,1361.4ZM995.75,931.4L1491.35,931.4L1491.35,1141L995.75,1141L995.75,931.4Z" style="fill-opacity:0.25;stroke:rgb(159,159,159);stroke-width:1px;"/>
    </g>
    <path d="M7692.77,1015.72C7692.77,827.816 7618.12,647.609 7485.26,514.742C7352.39,381.875 7172.18,307.231 6984.28,307.231L1015.72,307.231C827.816,307.231 647.609,381.875 514.742,514.742C381.875,647.609 307.231,827.816 307.231,1015.72L307.231,6984.28C307.231,7172.18 381.875,7352.39 514.742,7485.26C647.609,7618.12 827.816,7692.77 1015.72,7692.77C2426.73,7692.77 5573.27,7692.77 6984.28,7692.77C7172.18,7692.77 7352.39,7618.12 7485.26,7485.26C7618.12,7352.39 7692.77,7172.18 7692.77,6984.28C7692.77,5573.27 7692.77,2426.73 7692.77,1015.72ZM6167.66,2423.52C6167.66,2097.55 5902.45,1832.34 5576.48,1832.34L2423.52,1832.34C2097.55,1832.34 1832.34,2097.55 1832.34,2423.52C1832.34,2680.42 1997.1,2899.46 2226.46,2980.81L2226.46,5970.6C2226.46,6079.43 2314.69,6167.66 2423.52,6167.66L5576.48,6167.66C5685.31,6167.66 5773.54,6079.43 5773.54,5970.6L5773.54,2980.81C6002.89,2899.46 6167.66,2680.42 6167.66,2423.52ZM5379.42,5773.54L2620.58,5773.54L2620.58,4719.25C2945.98,5121.61 3443.41,5379.42 4000,5379.42C4556.59,5379.42 5054.02,5121.61 5379.42,4719.25L5379.42,5773.54ZM3605.88,4197.06C3931.86,4197.06 4197.06,3931.86 4197.06,3605.88L4197.06,3014.7L5379.42,3014.7L5379.42,3605.88C5379.42,4366.49 4760.61,4985.3 4000,4985.3C3239.39,4985.3 2620.58,4366.49 2620.58,3605.88L2620.58,3014.7L3014.7,3014.7L3014.7,3605.88C3014.7,3931.86 3279.91,4197.06 3605.88,4197.06ZM5576.54,2620.58L4000,2620.58C3891.17,2620.58 3802.94,2708.81 3802.94,2817.64L3802.94,3605.88C3802.94,3714.54 3714.54,3802.94 3605.88,3802.94C3497.22,3802.94 3408.82,3714.54 3408.82,3605.88L3408.82,2817.64C3408.82,2708.81 3320.59,2620.58 3211.76,2620.58L2423.46,2620.58C2314.84,2620.54 2226.46,2532.17 2226.46,2423.52C2226.46,2314.87 2314.87,2226.46 2423.52,2226.46L5576.48,2226.46C5685.14,2226.46 5773.54,2314.87 5773.54,2423.52C5773.54,2532.17 5685.16,2620.54 5576.54,2620.58ZM1739.15,1867L747.95,1867C713.965,1867 686,1839.04 686,1805.05L686,689.95C686,655.965 713.965,628 747.95,628L1739.15,628C1773.13,628 1801.1,655.965 1801.1,689.95L1801.1,1805.05C1801.1,1839.04 1773.13,1867 1739.15,1867ZM1677.2,1743.1L1677.2,751.9L809.9,751.9L809.9,1743.1L1677.2,1743.1ZM995.75,1361.4L1491.35,1361.4L1491.35,1571L995.75,1571L995.75,1361.4ZM995.75,931.4L1491.35,931.4L1491.35,1141L995.75,1141L995.75,931.4Z" style="fill:url(#_Radial1);"/>
    <path d="M7692.77,1015.72C7692.77,827.816 7618.12,647.609 7485.26,514.742C7352.39,381.875 7172.18,307.231 6984.28,307.231L1015.72,307.231C827.816,307.231 647.609,381.875 514.742,514.742C381.875,647.609 307.231,827.816 307.231,1015.72L307.231,6984.28C307.231,7172.18 381.875,7352.39 514.742,7485.26C647.609,7618.12 827.816,7692.77 1015.72,7692.77C2426.73,7692.77 5573.27,7692.77 6984.28,7692.77C7172.18,7692.77 7352.39,7618.12 7485.26,7485.26C7618.12,7352.39 7692.77,7172.18 7692.77,6984.28C7692.77,5573.27 7692.77,2426.73 7692.77,1015.72ZM7665.88,1015.72C7665.88,2426.73 7665.88,5573.27 7665.88,6984.28C7665.88,7165.05 7594.07,7338.42 7466.24,7466.24C7338.42,7594.07 7165.05,7665.88 6984.28,7665.88C5573.27,7665.88 2426.73,7665.88 1015.72,7665.88C834.948,7665.88 661.581,7594.07 533.757,7466.24C405.933,7338.42 334.122,7165.05 334.122,6984.28L334.122,1015.72C334.122,834.948 405.933,661.581 533.757,533.757C661.581,405.933 834.948,334.122 1015.72,334.122L6984.28,334.122C7165.05,334.122 7338.42,405.933 7466.24,533.757C7594.07,661.581 7665.88,834.948 7665.88,1015.72ZM6194.55,2423.52C6194.55,2082.72 5917.28,1805.45 5576.48,1805.45L2423.52,1805.45C2082.72,1805.45 1805.45,2082.72 1805.45,2423.52C1805.45,2685.37 1969.16,2909.6 2199.57,2999.49C2199.57,2999.49 2199.57,5970.6 2199.57,5970.6C2199.57,6094.28 2299.84,6194.55 2423.52,6194.55L5576.48,6194.55C5700.16,6194.55 5800.43,6094.28 5800.43,5970.6C5800.43,5970.6 5800.43,2999.49 5800.43,2999.49C6030.83,2909.6 6194.55,2685.37 6194.55,2423.52ZM6167.66,2423.52C6167.66,2097.55 5902.45,1832.34 5576.48,1832.34L2423.52,1832.34C2097.55,1832.34 1832.34,2097.55 1832.34,2423.52C1832.34,2680.42 1997.1,2899.46 2226.46,2980.81L2226.46,5970.6C2226.46,6079.43 2314.69,6167.66 2423.52,6167.66L5576.48,6167.66C5685.31,6167.66 5773.54,6079.43 5773.54,5970.6L5773.54,2980.81C6002.89,2899.46 6167.66,2680.42 6167.66,2423.52ZM5379.42,5773.54L2620.58,5773.54L2620.58,4719.25C2945.98,5121.61 3443.41,5379.42 4000,5379.42C4556.59,5379.42 5054.02,5121.61 5379.42,4719.25L5379.42,5773.54ZM5352.53,5746.65L2647.47,5746.65C2647.47,5746.65 2647.47,5028.14 2647.47,4792.86C2977.68,5168.68 3461.58,5406.31 4000,5406.31C4538.42,5406.31 5022.32,5168.68 5352.53,4792.86C5352.53,4792.86 5352.53,5746.65 5352.53,5746.65L5352.53,5746.65ZM3605.88,4197.06C3931.86,4197.06 4197.06,3931.86 4197.06,3605.88L4197.06,3014.7L5379.42,3014.7L5379.42,3605.88C5379.42,4366.49 4760.61,4985.3 4000,4985.3C3239.39,4985.3 2620.58,4366.49 2620.58,3605.88L2620.58,3014.7L3014.7,3014.7L3014.7,3605.88C3014.7,3931.86 3279.91,4197.06 3605.88,4197.06ZM3605.88,4223.95C3946.68,4223.95 4223.95,3946.68 4223.95,3605.88C4223.95,3605.88 4223.95,3041.59 4223.95,3041.59C4223.95,3041.59 5352.53,3041.59 5352.53,3041.59C5352.53,3041.59 5352.53,3605.88 5352.53,3605.88C5352.53,4351.66 4745.78,4958.41 4000,4958.41C3254.22,4958.41 2647.47,4351.66 2647.47,3605.88L2647.47,3041.59C2647.47,3041.59 2987.81,3041.59 2987.81,3041.59C2987.81,3041.59 2987.81,3605.88 2987.81,3605.88C2987.81,3946.68 3265.08,4223.95 3605.88,4223.95ZM5576.54,2620.58L4000,2620.58C3891.17,2620.58 3802.94,2708.81 3802.94,2817.64L3802.94,3605.88C3802.94,3714.54 3714.54,3802.94 3605.88,3802.94C3497.22,3802.94 3408.82,3714.54 3408.82,3605.88L3408.82,2817.64C3408.82,2708.81 3320.59,2620.58 3211.76,2620.58L2423.46,2620.58C2314.84,2620.54 2226.46,2532.17 2226.46,2423.52C2226.46,2314.87 2314.87,2226.46 2423.52,2226.46L5576.48,2226.46C5685.14,2226.46 5773.54,2314.87 5773.54,2423.52C5773.54,2532.17 5685.16,2620.54 5576.54,2620.58ZM5576.53,2593.69L4000,2593.69C3876.32,2593.69 3776.05,2693.96 3776.05,2817.64L3776.05,3605.88C3776.05,3699.71 3699.71,3776.05 3605.88,3776.05C3512.05,3776.05 3435.71,3699.71 3435.71,3605.88L3435.71,2817.64C3435.71,2693.96 3335.44,2593.69 3211.76,2593.69C3211.76,2593.69 2426.4,2593.69 2423.47,2593.69C2329.67,2593.66 2253.36,2517.34 2253.36,2423.52C2253.36,2329.69 2329.69,2253.36 2423.52,2253.36C2423.52,2253.36 5576.48,2253.36 5576.48,2253.36C5670.31,2253.36 5746.65,2329.69 5746.65,2423.52C5746.65,2517.34 5670.33,2593.66 5576.53,2593.69L5576.53,2593.69ZM1739.15,1893.89C1787.89,1893.89 1827.99,1853.79 1827.99,1805.05C1827.99,1805.05 1827.99,689.95 1827.99,689.95C1827.99,641.213 1787.89,601.109 1739.15,601.109L747.95,601.109C699.213,601.109 659.109,641.213 659.109,689.95L659.109,1805.05C659.109,1853.79 699.213,1893.89 747.95,1893.89C747.95,1893.89 1739.15,1893.89 1739.15,1893.89ZM1739.15,1867L747.95,1867C713.965,1867 686,1839.04 686,1805.05L686,689.95C686,655.965 713.965,628 747.95,628L1739.15,628C1773.13,628 1801.1,655.965 1801.1,689.95L1801.1,1805.05C1801.1,1839.04 1773.13,1867 1739.15,1867ZM1677.2,1743.1L1677.2,751.9L809.9,751.9L809.9,1743.1L1677.2,1743.1ZM1650.31,1716.21L836.791,1716.21C836.791,1716.21 836.791,778.791 836.791,778.791C965.897,778.791 1521.2,778.791 1650.31,778.791C1650.31,778.791 1650.31,1716.21 1650.31,1716.21L1650.31,1716.21ZM995.75,1334.51C980.898,1334.51 968.859,1346.55 968.859,1361.4L968.859,1571C968.859,1585.85 980.898,1597.89 995.75,1597.89L1491.35,1597.89C1506.2,1597.89 1518.24,1585.85 1518.24,1571L1518.24,1361.4C1518.24,1346.55 1506.2,1334.51 1491.35,1334.51L995.75,1334.51ZM995.75,1361.4L1491.35,1361.4L1491.35,1571L995.75,1571L995.75,1361.4ZM995.75,904.509C980.898,904.509 968.859,916.548 968.859,931.4L968.859,1141C968.859,1155.85 980.898,1167.89 995.75,1167.89L1491.35,1167.89C1506.2,1167.89 1518.24,1155.85 1518.24,1141L1518.24,931.4C1518.24,916.548 1506.2,904.509 1491.35,904.509L995.75,904.509ZM995.75,931.4L1491.35,931.4L1491.35,1141L995.75,1141L995.75,931.4Z" style="fill:rgb(194,118,4);"/>
    <defs>
        <radialGradient id="_Radial1" cx="0" cy="0" r="1" gradientUnits="userSpaceOnUse" gradientTransform="matrix(62,10044,-10044,62,1017.51,851.545)"><stop offset="0" style="stop-color:rgb(255,153,0);stop-opacity:1"/><stop offset="1" style="stop-color:rgb(216,130,0);stop-opacity:1"/></radialGradient>
    </defs>
</svg>
