<?xml version="1.0" encoding="UTF-8" standalone="no"?>
<!DOCTYPE svg PUBLIC "-//W3C//DTD SVG 1.1//EN" "http://www.w3.org/Graphics/SVG/1.1/DTD/svg11.dtd">
<svg width="100%" height="100%" viewBox="0 0 8000 8000" version="1.1" xmlns="http://www.w3.org/2000/svg" xmlns:xlink="http://www.w3.org/1999/xlink" xml:space="preserve" xmlns:serif="http://www.serif.com/" style="fill-rule:evenodd;clip-rule:evenodd;stroke-linejoin:round;stroke-miterlimit:2;">
    <g transform="matrix(1,0,0,1,200,200)">
        <path d="M7692.77,1015.72C7692.77,827.816 7618.12,647.609 7485.26,514.742C7352.39,381.875 7172.18,307.231 6984.28,307.231L1015.72,307.231C827.816,307.231 647.609,381.875 514.742,514.742C381.875,647.609 307.231,827.816 307.231,1015.72L307.231,6984.28C307.231,7172.18 381.875,7352.39 514.742,7485.26C647.609,7618.12 827.816,7692.77 1015.72,7692.77C2426.73,7692.77 5573.27,7692.77 6984.28,7692.77C7172.18,7692.77 7352.39,7618.12 7485.26,7485.26C7618.12,7352.39 7692.77,7172.18 7692.77,6984.28C7692.77,5573.27 7692.77,2426.73 7692.77,1015.72ZM5799.34,1710C5500.56,1710 5257.58,1952.98 5257.58,2251.76C5257.58,2345.21 5281.33,2433.15 5323.14,2509.99L4435.65,3397.48C4313.3,3302.22 4160.17,3244.97 3993.49,3244.97C3826.81,3244.97 3673.67,3302.22 3551.23,3397.39L2858.78,2704.93C2890.56,2651.21 2909.97,2589.45 2909.97,2522.63C2909.97,2323.45 2747.99,2161.46 2548.8,2161.46C2349.62,2161.46 2187.63,2323.45 2187.63,2522.63C2187.63,2721.82 2349.62,2883.8 2548.8,2883.8C2615.62,2883.8 2677.38,2864.39 2731.11,2832.61L3423.56,3525.06C3328.39,3647.5 3271.14,3800.64 3271.14,3967.32C3271.14,4134 3328.39,4287.13 3423.56,4409.48L2280.09,5553.03C2183.84,5465.72 2056.62,5412 1916.76,5412C1617.98,5412 1375,5654.98 1375,5953.75C1375,6252.53 1617.98,6495.51 1916.76,6495.51C2215.53,6495.51 2458.51,6252.53 2458.51,5953.75C2458.51,5860.3 2434.76,5772.36 2392.96,5695.52L3551.32,4537.15C3651.19,4614.8 3771.64,4666.81 3903.28,4683.34L3903.28,5600.71C3647.49,5643.87 3451.82,5866.35 3451.82,6134.34C3451.82,6433.12 3694.8,6676.09 3993.58,6676.09C4292.36,6676.09 4535.33,6433.12 4535.33,6134.34C4535.33,5866.44 4339.67,5643.96 4083.87,5600.71L4083.87,4683.34C4215.52,4666.81 4335.97,4614.8 4435.83,4537.15L5128.28,5229.61C5096.41,5283.42 5077,5345.18 5077,5412C5077,5611.18 5238.98,5773.17 5438.17,5773.17C5637.35,5773.17 5799.34,5611.18 5799.34,5412C5799.34,5212.81 5637.35,5050.83 5438.17,5050.83C5371.35,5050.83 5309.59,5070.24 5255.87,5102.02L4563.41,4409.57C4658.58,4287.13 4715.83,4134 4715.83,3967.32C4715.83,3800.64 4658.58,3647.5 4563.41,3525.15L5436.09,2652.47C5532.25,2739.79 5659.48,2793.51 5799.34,2793.51C6098.12,2793.51 6341.09,2550.53 6341.09,2251.76C6341.09,1952.98 6098.12,1710 5799.34,1710ZM4354.66,6134.34C4354.66,6333.52 4192.67,6495.51 3993.49,6495.51C3794.3,6495.51 3632.32,6333.52 3632.32,6134.34C3632.32,5935.15 3794.3,5773.17 3993.49,5773.17C4192.67,5773.17 4354.66,5935.15 4354.66,6134.34ZM1916.76,6314.92C1717.57,6314.92 1555.59,6152.94 1555.59,5953.75C1555.59,5754.57 1717.57,5592.58 1916.76,5592.58C2115.94,5592.58 2277.93,5754.57 2277.93,5953.75C2277.93,6152.94 2115.94,6314.92 1916.76,6314.92ZM5618.75,5412C5618.75,5511.59 5537.76,5592.58 5438.17,5592.58C5338.57,5592.58 5257.58,5511.59 5257.58,5412C5257.58,5312.4 5338.57,5231.41 5438.17,5231.41C5537.76,5231.41 5618.75,5312.4 5618.75,5412ZM3993.49,4509.07C3694.71,4509.07 3451.73,4266.09 3451.73,3967.32C3451.73,3668.54 3694.71,3425.56 3993.49,3425.56C4292.26,3425.56 4535.24,3668.54 4535.24,3967.32C4535.24,4266.09 4292.26,4509.07 3993.49,4509.07ZM2368.22,2522.63C2368.22,2423.04 2449.21,2342.05 2548.8,2342.05C2648.4,2342.05 2729.39,2423.04 2729.39,2522.63C2729.39,2622.23 2648.4,2703.22 2548.8,2703.22C2449.21,2703.22 2368.22,2622.23 2368.22,2522.63ZM5799.34,2612.93C5600.15,2612.93 5438.17,2450.94 5438.17,2251.76C5438.17,2052.57 5600.15,1890.59 5799.34,1890.59C5998.52,1890.59 6160.51,2052.57 6160.51,2251.76C6160.51,2450.94 5998.52,2612.93 5799.34,2612.93Z" style="fill-opacity:0.25;"/>
    </g>
    <path d="M7692.77,1015.72C7692.77,827.816 7618.12,647.609 7485.26,514.742C7352.39,381.875 7172.18,307.231 6984.28,307.231L1015.72,307.231C827.816,307.231 647.609,381.875 514.742,514.742C381.875,647.609 307.231,827.816 307.231,1015.72L307.231,6984.28C307.231,7172.18 381.875,7352.39 514.742,7485.26C647.609,7618.12 827.816,7692.77 1015.72,7692.77C2426.73,7692.77 5573.27,7692.77 6984.28,7692.77C7172.18,7692.77 7352.39,7618.12 7485.26,7485.26C7618.12,7352.39 7692.77,7172.18 7692.77,6984.28C7692.77,5573.27 7692.77,2426.73 7692.77,1015.72ZM5799.34,1710C5500.56,1710 5257.58,1952.98 5257.58,2251.76C5257.58,2345.21 5281.33,2433.15 5323.14,2509.99L4435.65,3397.48C4313.3,3302.22 4160.17,3244.97 3993.49,3244.97C3826.81,3244.97 3673.67,3302.22 3551.23,3397.39L2858.78,2704.93C2890.56,2651.21 2909.97,2589.45 2909.97,2522.63C2909.97,2323.45 2747.99,2161.46 2548.8,2161.46C2349.62,2161.46 2187.63,2323.45 2187.63,2522.63C2187.63,2721.82 2349.62,2883.8 2548.8,2883.8C2615.62,2883.8 2677.38,2864.39 2731.11,2832.61L3423.56,3525.06C3328.39,3647.5 3271.14,3800.64 3271.14,3967.32C3271.14,4134 3328.39,4287.13 3423.56,4409.48L2280.09,5553.03C2183.84,5465.72 2056.62,5412 1916.76,5412C1617.98,5412 1375,5654.98 1375,5953.75C1375,6252.53 1617.98,6495.51 1916.76,6495.51C2215.53,6495.51 2458.51,6252.53 2458.51,5953.75C2458.51,5860.3 2434.76,5772.36 2392.96,5695.52L3551.32,4537.15C3651.19,4614.8 3771.64,4666.81 3903.28,4683.34L3903.28,5600.71C3647.49,5643.87 3451.82,5866.35 3451.82,6134.34C3451.82,6433.12 3694.8,6676.09 3993.58,6676.09C4292.36,6676.09 4535.33,6433.12 4535.33,6134.34C4535.33,5866.44 4339.67,5643.96 4083.87,5600.71L4083.87,4683.34C4215.52,4666.81 4335.97,4614.8 4435.83,4537.15L5128.28,5229.61C5096.41,5283.42 5077,5345.18 5077,5412C5077,5611.18 5238.98,5773.17 5438.17,5773.17C5637.35,5773.17 5799.34,5611.18 5799.34,5412C5799.34,5212.81 5637.35,5050.83 5438.17,5050.83C5371.35,5050.83 5309.59,5070.24 5255.87,5102.02L4563.41,4409.57C4658.58,4287.13 4715.83,4134 4715.83,3967.32C4715.83,3800.64 4658.58,3647.5 4563.41,3525.15L5436.09,2652.47C5532.25,2739.79 5659.48,2793.51 5799.34,2793.51C6098.12,2793.51 6341.09,2550.53 6341.09,2251.76C6341.09,1952.98 6098.12,1710 5799.34,1710ZM4354.66,6134.34C4354.66,6333.52 4192.67,6495.51 3993.49,6495.51C3794.3,6495.51 3632.32,6333.52 3632.32,6134.34C3632.32,5935.15 3794.3,5773.17 3993.49,5773.17C4192.67,5773.17 4354.66,5935.15 4354.66,6134.34ZM1916.76,6314.92C1717.57,6314.92 1555.59,6152.94 1555.59,5953.75C1555.59,5754.57 1717.57,5592.58 1916.76,5592.58C2115.94,5592.58 2277.93,5754.57 2277.93,5953.75C2277.93,6152.94 2115.94,6314.92 1916.76,6314.92ZM5618.75,5412C5618.75,5511.59 5537.76,5592.58 5438.17,5592.58C5338.57,5592.58 5257.58,5511.59 5257.58,5412C5257.58,5312.4 5338.57,5231.41 5438.17,5231.41C5537.76,5231.41 5618.75,5312.4 5618.75,5412ZM3993.49,4509.07C3694.71,4509.07 3451.73,4266.09 3451.73,3967.32C3451.73,3668.54 3694.71,3425.56 3993.49,3425.56C4292.26,3425.56 4535.24,3668.54 4535.24,3967.32C4535.24,4266.09 4292.26,4509.07 3993.49,4509.07ZM2368.22,2522.63C2368.22,2423.04 2449.21,2342.05 2548.8,2342.05C2648.4,2342.05 2729.39,2423.04 2729.39,2522.63C2729.39,2622.23 2648.4,2703.22 2548.8,2703.22C2449.21,2703.22 2368.22,2622.23 2368.22,2522.63ZM5799.34,2612.93C5600.15,2612.93 5438.17,2450.94 5438.17,2251.76C5438.17,2052.57 5600.15,1890.59 5799.34,1890.59C5998.52,1890.59 6160.51,2052.57 6160.51,2251.76C6160.51,2450.94 5998.52,2612.93 5799.34,2612.93Z" style="fill:url(#_Radial1);"/>
    <path d="M7692.77,1015.72C7692.77,827.816 7618.12,647.609 7485.26,514.742C7352.39,381.875 7172.18,307.231 6984.28,307.231L1015.72,307.231C827.816,307.231 647.609,381.875 514.742,514.742C381.875,647.609 307.231,827.816 307.231,1015.72L307.231,6984.28C307.231,7172.18 381.875,7352.39 514.742,7485.26C647.609,7618.12 827.816,7692.77 1015.72,7692.77C2426.73,7692.77 5573.27,7692.77 6984.28,7692.77C7172.18,7692.77 7352.39,7618.12 7485.26,7485.26C7618.12,7352.39 7692.77,7172.18 7692.77,6984.28C7692.77,5573.27 7692.77,2426.73 7692.77,1015.72ZM7665.88,1015.72C7665.88,2426.73 7665.88,5573.27 7665.88,6984.28C7665.88,7165.05 7594.07,7338.42 7466.24,7466.24C7338.42,7594.07 7165.05,7665.88 6984.28,7665.88C5573.27,7665.88 2426.73,7665.88 1015.72,7665.88C834.948,7665.88 661.581,7594.07 533.757,7466.24C405.933,7338.42 334.122,7165.05 334.122,6984.28L334.122,1015.72C334.122,834.948 405.933,661.581 533.757,533.757C661.581,405.933 834.948,334.122 1015.72,334.122L6984.28,334.122C7165.05,334.122 7338.42,405.933 7466.24,533.757C7594.07,661.581 7665.88,834.948 7665.88,1015.72ZM5799.34,1683.11C5485.73,1683.11 5230.69,1938.15 5230.69,2251.76C5230.69,2342.67 5252.11,2428.62 5290.17,2504.93C5290.17,2504.93 4433.16,3361.93 4433.16,3361.93C4309.55,3271.74 4157.86,3218.08 3993.49,3218.08C3829.11,3218.08 3677.42,3271.74 3553.73,3361.86C3553.73,3361.86 2892.16,2700.29 2892.16,2700.29C2920.19,2646.97 2936.87,2586.97 2936.87,2522.63C2936.87,2308.62 2762.82,2134.57 2548.8,2134.57C2334.79,2134.57 2160.74,2308.62 2160.74,2522.63C2160.74,2736.65 2334.79,2910.7 2548.8,2910.7C2613.14,2910.7 2673.14,2894.02 2726.46,2865.99C2726.46,2865.99 3388.03,3527.56 3388.03,3527.56C3297.91,3651.25 3244.25,3802.94 3244.25,3967.32C3244.25,4131.69 3297.9,4283.38 3388.02,4406.99C3388.02,4406.99 2278.79,5516.31 2278.79,5516.31C2180.34,5434.62 2054.37,5385.11 1916.76,5385.11C1603.15,5385.11 1348.11,5640.14 1348.11,5953.75C1348.11,6267.36 1603.15,6522.4 1916.76,6522.4C2230.36,6522.4 2485.4,6267.36 2485.4,5953.75C2485.4,5862.84 2463.99,5776.89 2425.92,5700.58C2547.25,5579.26 3422.35,4704.16 3553.82,4572.68C3647.42,4640.85 3757.17,4687.85 3876.39,4706.68C3876.39,4706.68 3876.39,5578.44 3876.39,5578.44C3618.96,5632.62 3424.93,5860.92 3424.93,6134.34C3424.93,6447.95 3679.97,6702.99 3993.58,6702.99C4307.19,6702.99 4562.22,6447.95 4562.22,6134.34C4562.22,5861.01 4368.2,5632.71 4110.76,5578.45C4110.76,5578.45 4110.76,4706.68 4110.76,4706.68C4229.98,4687.85 4339.73,4640.85 4433.33,4572.68C4433.33,4572.68 4997.09,5136.44 5094.89,5234.24C5066.78,5287.64 5050.11,5347.65 5050.11,5412C5050.11,5626.01 5224.15,5800.06 5438.17,5800.06C5652.18,5800.06 5826.23,5626.01 5826.23,5412C5826.23,5197.98 5652.18,5023.94 5438.17,5023.94C5373.83,5023.94 5313.83,5040.61 5260.51,5068.64C5260.51,5068.64 4702.74,4510.86 4598.95,4407.07C4689.07,4283.38 4742.72,4131.69 4742.72,3967.32C4742.72,3802.94 4689.07,3651.25 4598.95,3527.64C4598.95,3527.64 5437.39,2689.21 5437.39,2689.21C5535.76,2770.89 5661.73,2820.4 5799.34,2820.4C6112.95,2820.4 6367.99,2565.36 6367.99,2251.76C6367.99,1938.15 6112.95,1683.11 5799.34,1683.11ZM5799.34,1710C5500.56,1710 5257.58,1952.98 5257.58,2251.76C5257.58,2345.21 5281.33,2433.15 5323.14,2509.99L4435.65,3397.48C4313.3,3302.22 4160.17,3244.97 3993.49,3244.97C3826.81,3244.97 3673.67,3302.22 3551.23,3397.39L2858.78,2704.93C2890.56,2651.21 2909.97,2589.45 2909.97,2522.63C2909.97,2323.45 2747.99,2161.46 2548.8,2161.46C2349.62,2161.46 2187.63,2323.45 2187.63,2522.63C2187.63,2721.82 2349.62,2883.8 2548.8,2883.8C2615.62,2883.8 2677.38,2864.39 2731.11,2832.61L3423.56,3525.06C3328.39,3647.5 3271.14,3800.64 3271.14,3967.32C3271.14,4134 3328.39,4287.13 3423.56,4409.48L2280.09,5553.03C2183.84,5465.72 2056.62,5412 1916.76,5412C1617.98,5412 1375,5654.98 1375,5953.75C1375,6252.53 1617.98,6495.51 1916.76,6495.51C2215.53,6495.51 2458.51,6252.53 2458.51,5953.75C2458.51,5860.3 2434.76,5772.36 2392.96,5695.52L3551.32,4537.15C3651.19,4614.8 3771.64,4666.81 3903.28,4683.34L3903.28,5600.71C3647.49,5643.87 3451.82,5866.35 3451.82,6134.34C3451.82,6433.12 3694.8,6676.09 3993.58,6676.09C4292.36,6676.09 4535.33,6433.12 4535.33,6134.34C4535.33,5866.44 4339.67,5643.96 4083.87,5600.71L4083.87,4683.34C4215.52,4666.81 4335.97,4614.8 4435.83,4537.15L5128.28,5229.61C5096.41,5283.42 5077,5345.18 5077,5412C5077,5611.18 5238.98,5773.17 5438.17,5773.17C5637.35,5773.17 5799.34,5611.18 5799.34,5412C5799.34,5212.81 5637.35,5050.83 5438.17,5050.83C5371.35,5050.83 5309.59,5070.24 5255.87,5102.02L4563.41,4409.57C4658.58,4287.13 4715.83,4134 4715.83,3967.32C4715.83,3800.64 4658.58,3647.5 4563.41,3525.15L5436.09,2652.47C5532.25,2739.79 5659.48,2793.51 5799.34,2793.51C6098.12,2793.51 6341.09,2550.53 6341.09,2251.76C6341.09,1952.98 6098.12,1710 5799.34,1710ZM4354.66,6134.34C4354.66,6333.52 4192.67,6495.51 3993.49,6495.51C3794.3,6495.51 3632.32,6333.52 3632.32,6134.34C3632.32,5935.15 3794.3,5773.17 3993.49,5773.17C4192.67,5773.17 4354.66,5935.15 4354.66,6134.34ZM4327.77,6134.34C4327.77,6318.69 4177.84,6468.62 3993.49,6468.62C3809.13,6468.62 3659.21,6318.69 3659.21,6134.34C3659.21,5949.98 3809.13,5800.06 3993.49,5800.06C4177.84,5800.06 4327.77,5949.98 4327.77,6134.34ZM1916.76,6314.92C1717.57,6314.92 1555.59,6152.94 1555.59,5953.75C1555.59,5754.57 1717.57,5592.58 1916.76,5592.58C2115.94,5592.58 2277.93,5754.57 2277.93,5953.75C2277.93,6152.94 2115.94,6314.92 1916.76,6314.92ZM1916.76,6288.03C1732.4,6288.03 1582.48,6138.11 1582.48,5953.75C1582.48,5769.4 1732.4,5619.47 1916.76,5619.47C2101.11,5619.47 2251.03,5769.4 2251.03,5953.75C2251.03,6138.11 2101.11,6288.03 1916.76,6288.03ZM5618.75,5412C5618.75,5511.59 5537.76,5592.58 5438.17,5592.58C5338.57,5592.58 5257.58,5511.59 5257.58,5412C5257.58,5312.4 5338.57,5231.41 5438.17,5231.41C5537.76,5231.41 5618.75,5312.4 5618.75,5412ZM5591.86,5412C5591.86,5496.76 5522.93,5565.69 5438.17,5565.69C5353.41,5565.69 5284.47,5496.76 5284.47,5412C5284.47,5327.23 5353.41,5258.3 5438.17,5258.3C5522.93,5258.3 5591.86,5327.23 5591.86,5412ZM3993.49,4509.07C3694.71,4509.07 3451.73,4266.09 3451.73,3967.32C3451.73,3668.54 3694.71,3425.56 3993.49,3425.56C4292.26,3425.56 4535.24,3668.54 4535.24,3967.32C4535.24,4266.09 4292.26,4509.07 3993.49,4509.07ZM3993.49,4482.18C3709.54,4482.18 3478.62,4251.26 3478.62,3967.32C3478.62,3683.37 3709.54,3452.45 3993.49,3452.45C4277.43,3452.45 4508.35,3683.37 4508.35,3967.32C4508.35,4251.26 4277.43,4482.18 3993.49,4482.18ZM2368.22,2522.63C2368.22,2423.04 2449.21,2342.05 2548.8,2342.05C2648.4,2342.05 2729.39,2423.04 2729.39,2522.63C2729.39,2622.23 2648.4,2703.22 2548.8,2703.22C2449.21,2703.22 2368.22,2622.23 2368.22,2522.63ZM2395.11,2522.63C2395.11,2437.87 2464.04,2368.94 2548.8,2368.94C2633.57,2368.94 2702.5,2437.87 2702.5,2522.63C2702.5,2607.4 2633.57,2676.33 2548.8,2676.33C2464.04,2676.33 2395.11,2607.4 2395.11,2522.63ZM5799.34,2612.93C5600.15,2612.93 5438.17,2450.94 5438.17,2251.76C5438.17,2052.57 5600.15,1890.59 5799.34,1890.59C5998.52,1890.59 6160.51,2052.57 6160.51,2251.76C6160.51,2450.94 5998.52,2612.93 5799.34,2612.93ZM5799.34,2586.03C5614.98,2586.03 5465.06,2436.11 5465.06,2251.76C5465.06,2067.4 5614.98,1917.48 5799.34,1917.48C5983.69,1917.48 6133.62,2067.4 6133.62,2251.76C6133.62,2436.11 5983.69,2586.03 5799.34,2586.03Z" style="fill:rgb(194,118,4);"/>
    <defs>
        <radialGradient id="_Radial1" cx="0" cy="0" r="1" gradientUnits="userSpaceOnUse" gradientTransform="matrix(78.5454,7262.49,-7262.49,78.5454,1017.51,851.545)"><stop offset="0" style="stop-color:rgb(255,153,0);stop-opacity:1"/><stop offset="1" style="stop-color:rgb(216,130,0);stop-opacity:1"/></radialGradient>
    </defs>
</svg>
