<svg xmlns="http://www.w3.org/2000/svg" xmlns:xlink="http://www.w3.org/1999/xlink" viewBox="0 0 74.375 85" fill="#fff" fill-rule="evenodd" stroke="#000" stroke-linecap="round" stroke-linejoin="round"><use xlink:href="#A" x="2.188" y="2.5"/><symbol id="A" overflow="visible"><g stroke="none"><path d="M14.243 62.371L2.389 59.62V21.132l11.854-2.156v43.395z" fill="#759c3e"/><path d="M4.509 55.327l30.772 21.444V59.005l-21.037-4.966-9.734 1.288z" fill="#b7ca9d"/><path d="M55.736 59.005l11.656.615.322-36.263-11.978-3.581v39.229z" fill="#4b612c"/><path d="M35.281 21.346l-21.037 4.605-9.734-1.278L35.281 3.805v17.541z" fill="#3c4929"/><path d="M65.471 55.327L34.699 75.473V59.005l21.037-4.966 9.734 1.288z" fill="#b7ca9d"/><path d="M34.699 21.346l21.037 4.605 9.734-1.278L34.99 2.956l-.291 18.39z" fill="#3c4929"/><path d="M34.99 0L0 16.585v46.829L34.99 80l8.903-39.454zM24.725 61.024L4.509 55.327V24.673l20.217-5.698z" fill="#4b612c"/><path d="M34.99 80L70 63.415V16.585L34.99 0zm10.306-61.024l20.217 5.698v30.654l-20.258 5.698z" fill="#759c3e"/></g></symbol></svg>