<?xml version="1.0" encoding="UTF-8" standalone="no"?>
<!DOCTYPE svg PUBLIC "-//W3C//DTD SVG 1.1//EN" "http://www.w3.org/Graphics/SVG/1.1/DTD/svg11.dtd">
<svg width="100%" height="100%" viewBox="0 0 8000 8000" version="1.1" xmlns="http://www.w3.org/2000/svg" xmlns:xlink="http://www.w3.org/1999/xlink" xml:space="preserve" xmlns:serif="http://www.serif.com/" style="fill-rule:evenodd;clip-rule:evenodd;stroke-linejoin:round;stroke-miterlimit:2;">
    <g transform="matrix(1,0,0,1,200,200)">
        <path d="M7692.77,1015.72C7692.77,827.816 7618.12,647.609 7485.26,514.742C7352.39,381.875 7172.18,307.231 6984.28,307.231L1015.72,307.231C827.816,307.231 647.609,381.875 514.742,514.742C381.875,647.609 307.231,827.816 307.231,1015.72L307.231,6984.28C307.231,7172.18 381.875,7352.39 514.742,7485.26C647.609,7618.12 827.816,7692.77 1015.72,7692.77C2426.73,7692.77 5573.27,7692.77 6984.28,7692.77C7172.18,7692.77 7352.39,7618.12 7485.26,7485.26C7618.12,7352.39 7692.77,7172.18 7692.77,6984.28C7692.77,5573.27 7692.77,2426.73 7692.77,1015.72ZM5799.34,1710C5500.56,1710 5257.58,1952.98 5257.58,2251.76C5257.58,2345.21 5281.33,2433.15 5323.14,2509.99L4435.65,3397.48C4313.3,3302.22 4160.17,3244.97 3993.49,3244.97C3826.81,3244.97 3673.67,3302.22 3551.23,3397.39L3423.56,3525.06C3328.39,3647.5 3271.14,3800.64 3271.14,3967.32C3271.14,4134 3328.39,4287.13 3423.56,4409.48L3551.32,4537.15C3651.19,4614.8 3771.64,4666.81 3903.28,4683.34L4083.87,4683.34C4215.52,4666.81 4335.97,4614.8 4435.83,4537.15L4563.41,4409.57C4658.58,4287.13 4715.83,4134 4715.83,3967.32C4715.83,3800.64 4658.58,3647.5 4563.41,3525.15L5436.09,2652.47C5532.25,2739.79 5659.48,2793.51 5799.34,2793.51C6098.12,2793.51 6341.09,2550.53 6341.09,2251.76C6341.09,1952.98 6098.12,1710 5799.34,1710ZM3993.49,4509.07C3694.71,4509.07 3451.73,4266.09 3451.73,3967.32C3451.73,3668.54 3694.71,3425.56 3993.49,3425.56C4292.26,3425.56 4535.24,3668.54 4535.24,3967.32C4535.24,4266.09 4292.26,4509.07 3993.49,4509.07ZM5799.34,2612.93C5600.15,2612.93 5438.17,2450.94 5438.17,2251.76C5438.17,2052.57 5600.15,1890.59 5799.34,1890.59C5998.52,1890.59 6160.51,2052.57 6160.51,2251.76C6160.51,2450.94 5998.52,2612.93 5799.34,2612.93Z" style="fill-opacity:0.25;"/>
    </g>
    <path d="M7692.77,1015.72C7692.77,827.816 7618.12,647.609 7485.26,514.742C7352.39,381.875 7172.18,307.231 6984.28,307.231L1015.72,307.231C827.816,307.231 647.609,381.875 514.742,514.742C381.875,647.609 307.231,827.816 307.231,1015.72L307.231,6984.28C307.231,7172.18 381.875,7352.39 514.742,7485.26C647.609,7618.12 827.816,7692.77 1015.72,7692.77C2426.73,7692.77 5573.27,7692.77 6984.28,7692.77C7172.18,7692.77 7352.39,7618.12 7485.26,7485.26C7618.12,7352.39 7692.77,7172.18 7692.77,6984.28C7692.77,5573.27 7692.77,2426.73 7692.77,1015.72ZM5799.34,1710C5500.56,1710 5257.58,1952.98 5257.58,2251.76C5257.58,2345.21 5281.33,2433.15 5323.14,2509.99L4435.65,3397.48C4313.3,3302.22 4160.17,3244.97 3993.49,3244.97C3826.81,3244.97 3673.67,3302.22 3551.23,3397.39L3423.56,3525.06C3328.39,3647.5 3271.14,3800.64 3271.14,3967.32C3271.14,4134 3328.39,4287.13 3423.56,4409.48L3551.32,4537.15C3651.19,4614.8 3771.64,4666.81 3903.28,4683.34L4083.87,4683.34C4215.52,4666.81 4335.97,4614.8 4435.83,4537.15L4563.41,4409.57C4658.58,4287.13 4715.83,4134 4715.83,3967.32C4715.83,3800.64 4658.58,3647.5 4563.41,3525.15L5436.09,2652.47C5532.25,2739.79 5659.48,2793.51 5799.34,2793.51C6098.12,2793.51 6341.09,2550.53 6341.09,2251.76C6341.09,1952.98 6098.12,1710 5799.34,1710ZM3993.49,4509.07C3694.71,4509.07 3451.73,4266.09 3451.73,3967.32C3451.73,3668.54 3694.71,3425.56 3993.49,3425.56C4292.26,3425.56 4535.24,3668.54 4535.24,3967.32C4535.24,4266.09 4292.26,4509.07 3993.49,4509.07ZM5799.34,2612.93C5600.15,2612.93 5438.17,2450.94 5438.17,2251.76C5438.17,2052.57 5600.15,1890.59 5799.34,1890.59C5998.52,1890.59 6160.51,2052.57 6160.51,2251.76C6160.51,2450.94 5998.52,2612.93 5799.34,2612.93Z" style="fill:url(#_Radial1);"/>
    <path d="M7692.77,1015.72C7692.77,827.816 7618.12,647.609 7485.26,514.742C7352.39,381.875 7172.18,307.231 6984.28,307.231L1015.72,307.231C827.816,307.231 647.609,381.875 514.742,514.742C381.875,647.609 307.231,827.816 307.231,1015.72L307.231,6984.28C307.231,7172.18 381.875,7352.39 514.742,7485.26C647.609,7618.12 827.816,7692.77 1015.72,7692.77C2426.73,7692.77 5573.27,7692.77 6984.28,7692.77C7172.18,7692.77 7352.39,7618.12 7485.26,7485.26C7618.12,7352.39 7692.77,7172.18 7692.77,6984.28C7692.77,5573.27 7692.77,2426.73 7692.77,1015.72ZM7665.88,1015.72C7665.88,2426.73 7665.88,5573.27 7665.88,6984.28C7665.88,7165.05 7594.07,7338.42 7466.24,7466.24C7338.42,7594.07 7165.05,7665.88 6984.28,7665.88C5573.27,7665.88 2426.73,7665.88 1015.72,7665.88C834.948,7665.88 661.581,7594.07 533.757,7466.24C405.933,7338.42 334.122,7165.05 334.122,6984.28L334.122,1015.72C334.122,834.948 405.933,661.581 533.757,533.757C661.581,405.933 834.948,334.122 1015.72,334.122L6984.28,334.122C7165.05,334.122 7338.42,405.933 7466.24,533.757C7594.07,661.581 7665.88,834.948 7665.88,1015.72ZM5799.34,1683.11C5485.73,1683.11 5230.69,1938.15 5230.69,2251.76C5230.69,2342.67 5252.11,2428.62 5290.17,2504.93C5290.17,2504.93 4433.16,3361.93 4433.16,3361.93C4309.55,3271.74 4157.86,3218.08 3993.49,3218.08C3820.59,3218.08 3661.73,3277.44 3534.73,3376.16C3533.85,3376.84 3533.01,3377.58 3532.22,3378.37L3404.54,3506.05C3403.75,3506.84 3403.01,3507.68 3402.33,3508.56C3303.61,3635.56 3244.25,3794.42 3244.25,3967.32C3244.25,4140.22 3303.61,4299.08 3402.33,4425.99C3403.02,4426.87 3403.76,4427.71 3404.55,4428.5L3532.32,4556.17C3533.1,4556.96 3533.94,4557.7 3534.82,4558.38C3638.41,4638.93 3763.37,4692.88 3899.93,4710.02C3901.05,4710.16 3902.16,4710.23 3903.28,4710.23L4083.87,4710.23C4084.99,4710.23 4086.11,4710.16 4087.22,4710.02C4223.78,4692.88 4348.74,4638.93 4452.34,4558.38C4453.22,4557.7 4454.06,4556.96 4454.84,4556.17L4582.43,4428.58C4583.22,4427.79 4583.96,4426.95 4584.65,4426.07C4683.36,4299.07 4742.72,4140.21 4742.72,3967.32C4742.72,3802.94 4689.07,3651.25 4598.95,3527.64C4598.95,3527.64 5437.39,2689.21 5437.39,2689.21C5535.76,2770.89 5661.73,2820.4 5799.34,2820.4C6112.95,2820.4 6367.99,2565.36 6367.99,2251.76C6367.99,1938.15 6112.95,1683.11 5799.34,1683.11ZM5799.34,1710C5500.56,1710 5257.58,1952.98 5257.58,2251.76C5257.58,2345.21 5281.33,2433.15 5323.14,2509.99L4435.65,3397.48C4313.3,3302.22 4160.17,3244.97 3993.49,3244.97C3826.81,3244.97 3673.67,3302.22 3551.23,3397.39L3423.56,3525.06C3328.39,3647.5 3271.14,3800.64 3271.14,3967.32C3271.14,4134 3328.39,4287.13 3423.56,4409.48L3551.32,4537.15C3651.19,4614.8 3771.64,4666.81 3903.28,4683.34L4083.87,4683.34C4215.52,4666.81 4335.97,4614.8 4435.83,4537.15L4563.41,4409.57C4658.58,4287.13 4715.83,4134 4715.83,3967.32C4715.83,3800.64 4658.58,3647.5 4563.41,3525.15L5436.09,2652.47C5532.25,2739.79 5659.48,2793.51 5799.34,2793.51C6098.12,2793.51 6341.09,2550.53 6341.09,2251.76C6341.09,1952.98 6098.12,1710 5799.34,1710ZM3993.49,4509.07C3694.71,4509.07 3451.73,4266.09 3451.73,3967.32C3451.73,3668.54 3694.71,3425.56 3993.49,3425.56C4292.26,3425.56 4535.24,3668.54 4535.24,3967.32C4535.24,4266.09 4292.26,4509.07 3993.49,4509.07ZM3993.49,4482.18C3709.54,4482.18 3478.62,4251.26 3478.62,3967.32C3478.62,3683.37 3709.54,3452.45 3993.49,3452.45C4277.43,3452.45 4508.35,3683.37 4508.35,3967.32C4508.35,4251.26 4277.43,4482.18 3993.49,4482.18ZM5799.34,2612.93C5600.15,2612.93 5438.17,2450.94 5438.17,2251.76C5438.17,2052.57 5600.15,1890.59 5799.34,1890.59C5998.52,1890.59 6160.51,2052.57 6160.51,2251.76C6160.51,2450.94 5998.52,2612.93 5799.34,2612.93ZM5799.34,2586.03C5614.98,2586.03 5465.06,2436.11 5465.06,2251.76C5465.06,2067.4 5614.98,1917.48 5799.34,1917.48C5983.69,1917.48 6133.62,2067.4 6133.62,2251.76C6133.62,2436.11 5983.69,2586.03 5799.34,2586.03Z" style="fill:rgb(194,118,4);"/>
    <defs>
        <radialGradient id="_Radial1" cx="0" cy="0" r="1" gradientUnits="userSpaceOnUse" gradientTransform="matrix(62,10044,-10044,62,1017.51,851.545)"><stop offset="0" style="stop-color:rgb(255,153,0);stop-opacity:1"/><stop offset="1" style="stop-color:rgb(216,130,0);stop-opacity:1"/></radialGradient>
    </defs>
</svg>
