<?xml version="1.0" encoding="UTF-8" standalone="no"?>
<!DOCTYPE svg PUBLIC "-//W3C//DTD SVG 1.1//EN" "http://www.w3.org/Graphics/SVG/1.1/DTD/svg11.dtd">
<svg width="100%" height="100%" viewBox="0 0 8000 8000" version="1.1" xmlns="http://www.w3.org/2000/svg" xmlns:xlink="http://www.w3.org/1999/xlink" xml:space="preserve" xmlns:serif="http://www.serif.com/" style="fill-rule:evenodd;clip-rule:evenodd;stroke-linecap:round;stroke-linejoin:round;stroke-miterlimit:1.5;">
    <g transform="matrix(0.923192,0,0,0.923192,505.73,505.73)">
        <path d="M8000,767.433C8000,563.897 7919.15,368.697 7775.22,224.776C7631.3,80.854 7436.1,-0 7232.57,0L767.433,0C563.897,-0 368.697,80.854 224.776,224.776C80.854,368.697 -0,563.897 -0,767.433L-0,7232.57C-0,7436.1 80.854,7631.3 224.776,7775.22C368.697,7919.15 563.897,8000 767.433,8000L7232.57,8000C7436.1,8000 7631.3,7919.15 7775.22,7775.22C7919.15,7631.3 8000,7436.1 8000,7232.57L8000,767.433ZM6348,2292.36C6348,1939.27 6060.73,1652 5707.64,1652L2292.36,1652C1939.27,1652 1652,1939.27 1652,2292.36C1652,2570.64 1830.46,2807.9 2078.91,2896.01L2078.91,6134.55C2078.91,6252.43 2174.48,6348 2292.36,6348L5707.64,6348C5825.52,6348 5921.09,6252.43 5921.09,6134.55L5921.09,2896.01C6169.52,2807.9 6348,2570.64 6348,2292.36ZM5494.18,5921.09L2505.82,5921.09L2505.82,4779.1C2858.29,5214.93 3397.11,5494.18 4000,5494.18C4602.9,5494.18 5141.71,5214.93 5494.18,4779.1L5494.18,5921.09ZM3573.09,4213.45C3926.19,4213.45 4213.45,3926.19 4213.45,3573.09L4213.45,2932.73L5494.18,2932.73L5494.18,3573.09C5494.18,4396.98 4823.89,5067.27 4000,5067.27C3176.11,5067.27 2505.82,4396.98 2505.82,3573.09L2505.82,2932.73L2932.73,2932.73L2932.73,3573.09C2932.73,3926.19 3219.99,4213.45 3573.09,4213.45ZM5707.71,2505.82L4000,2505.82C3882.12,2505.82 3786.55,2601.39 3786.55,2719.27L3786.55,3573.09C3786.55,3690.79 3690.79,3786.55 3573.09,3786.55C3455.39,3786.55 3359.64,3690.79 3359.64,3573.09L3359.64,2719.27C3359.64,2601.39 3264.07,2505.82 3146.18,2505.82L2292.29,2505.82C2174.64,2505.78 2078.91,2410.05 2078.91,2292.36C2078.91,2174.66 2174.66,2078.91 2292.36,2078.91L5707.64,2078.91C5825.34,2078.91 5921.09,2174.66 5921.09,2292.36C5921.09,2410.05 5825.36,2505.78 5707.71,2505.82Z" style="fill-opacity:0.25;stroke:rgb(159,159,159);stroke-width:1.08px;"/>
    </g>
    <g transform="matrix(0.923192,0,0,0.923192,307.231,307.231)">
        <path d="M8000,767.433C8000,563.897 7919.15,368.697 7775.22,224.776C7631.3,80.854 7436.1,-0 7232.57,-0L767.433,0C563.897,-0 368.697,80.854 224.776,224.776C80.854,368.697 -0,563.897 -0,767.433L-0,7232.57C-0,7436.1 80.854,7631.3 224.776,7775.22C368.697,7919.15 563.897,8000 767.433,8000L7232.57,8000C7436.1,8000 7631.3,7919.15 7775.22,7775.22C7919.15,7631.3 8000,7436.1 8000,7232.57C8000,5704.16 8000,2295.84 8000,767.433ZM6348,2292.36C6348,1939.27 6060.73,1652 5707.64,1652L2292.36,1652C1939.27,1652 1652,1939.27 1652,2292.36C1652,2570.64 1830.46,2807.9 2078.91,2896.01L2078.91,6134.55C2078.91,6252.43 2174.48,6348 2292.36,6348L5707.64,6348C5825.52,6348 5921.09,6252.43 5921.09,6134.55L5921.09,2896.01C6169.52,2807.9 6348,2570.64 6348,2292.36ZM5494.18,5921.09L2505.82,5921.09L2505.82,4779.1C2858.29,5214.93 3397.11,5494.18 4000,5494.18C4602.9,5494.18 5141.71,5214.93 5494.18,4779.1L5494.18,5921.09ZM3573.09,4213.45C3926.19,4213.45 4213.45,3926.19 4213.45,3573.09L4213.45,2932.73L5494.18,2932.73L5494.18,3573.09C5494.18,4396.98 4823.89,5067.27 4000,5067.27C3176.11,5067.27 2505.82,4396.98 2505.82,3573.09L2505.82,2932.73L2932.73,2932.73L2932.73,3573.09C2932.73,3926.19 3219.99,4213.45 3573.09,4213.45ZM5707.71,2505.82L4000,2505.82C3882.12,2505.82 3786.55,2601.39 3786.55,2719.27L3786.55,3573.09C3786.55,3690.79 3690.79,3786.55 3573.09,3786.55C3455.39,3786.55 3359.64,3690.79 3359.64,3573.09L3359.64,2719.27C3359.64,2601.39 3264.07,2505.82 3146.18,2505.82L2292.29,2505.82C2174.64,2505.78 2078.91,2410.05 2078.91,2292.36C2078.91,2174.66 2174.66,2078.91 2292.36,2078.91L5707.64,2078.91C5825.34,2078.91 5921.09,2174.66 5921.09,2292.36C5921.09,2410.05 5825.36,2505.78 5707.71,2505.82Z" style="fill:url(#_Radial1);"/>
        <path d="M8000,767.433C8000,563.897 7919.15,368.697 7775.22,224.776C7631.3,80.854 7436.1,-0 7232.57,-0L767.433,0C563.897,-0 368.697,80.854 224.776,224.776C80.854,368.697 -0,563.897 -0,767.433L-0,7232.57C-0,7436.1 80.854,7631.3 224.776,7775.22C368.697,7919.15 563.897,8000 767.433,8000C2295.84,8000 5704.16,8000 7232.57,8000C7436.1,8000 7631.3,7919.15 7775.22,7775.22C7919.15,7631.3 8000,7436.1 8000,7232.57C8000,5704.16 8000,2295.84 8000,767.433ZM7970.87,767.433C7970.87,2295.84 7970.87,5704.16 7970.87,7232.57C7970.87,7428.38 7893.09,7616.17 7754.63,7754.63C7616.17,7893.09 7428.38,7970.87 7232.57,7970.87L767.433,7970.87C571.622,7970.87 383.832,7893.09 245.373,7754.63C106.914,7616.17 29.128,7428.38 29.128,7232.57L29.128,767.433C29.128,571.622 106.914,383.832 245.373,245.373C383.832,106.914 571.622,29.128 767.433,29.128L7232.57,29.128C7428.38,29.128 7616.17,106.914 7754.63,245.373C7893.09,383.832 7970.87,571.622 7970.87,767.433ZM6377.13,2292.36C6377.13,1923.21 6076.79,1622.87 5707.64,1622.87L2292.36,1622.87C1923.21,1622.87 1622.87,1923.21 1622.87,2292.36C1622.87,2575.99 1800.2,2818.88 2049.78,2916.25C2049.78,2916.25 2049.78,6134.55 2049.78,6134.55C2049.78,6268.52 2158.39,6377.13 2292.36,6377.13L5707.64,6377.13C5841.61,6377.13 5950.22,6268.52 5950.22,6134.55C5950.22,6134.55 5950.22,2916.25 5950.22,2916.25C6199.79,2818.88 6377.13,2575.99 6377.13,2292.36ZM6348,2292.36C6348,1939.27 6060.73,1652 5707.64,1652L2292.36,1652C1939.27,1652 1652,1939.27 1652,2292.36C1652,2570.64 1830.46,2807.9 2078.91,2896.01L2078.91,6134.55C2078.91,6252.43 2174.48,6348 2292.36,6348L5707.64,6348C5825.52,6348 5921.09,6252.43 5921.09,6134.55L5921.09,2896.01C6169.52,2807.9 6348,2570.64 6348,2292.36ZM5494.18,5921.09L2505.82,5921.09L2505.82,4779.1C2858.29,5214.93 3397.11,5494.18 4000,5494.18C4602.9,5494.18 5141.71,5214.93 5494.18,4779.1L5494.18,5921.09ZM5465.05,5891.96L2534.95,5891.96C2534.95,5891.96 2534.95,5113.68 2534.95,4858.82C2892.62,5265.91 3416.78,5523.31 4000,5523.31C4583.22,5523.31 5107.38,5265.91 5465.05,4858.82C5465.05,4858.82 5465.05,5891.96 5465.05,5891.96L5465.05,5891.96ZM3573.09,4213.45C3926.19,4213.45 4213.45,3926.19 4213.45,3573.09L4213.45,2932.73L5494.18,2932.73L5494.18,3573.09C5494.18,4396.98 4823.89,5067.27 4000,5067.27C3176.11,5067.27 2505.82,4396.98 2505.82,3573.09L2505.82,2932.73L2932.73,2932.73L2932.73,3573.09C2932.73,3926.19 3219.99,4213.45 3573.09,4213.45ZM3573.09,4242.58C3942.25,4242.58 4242.58,3942.25 4242.58,3573.09C4242.58,3573.09 4242.58,2961.86 4242.58,2961.86C4242.58,2961.86 5465.05,2961.86 5465.05,2961.86C5465.05,2961.86 5465.05,3573.09 5465.05,3573.09C5465.05,4380.92 4807.83,5038.14 4000,5038.14C3192.17,5038.14 2534.95,4380.92 2534.95,3573.09L2534.95,2961.86C2534.95,2961.86 2903.6,2961.86 2903.6,2961.86C2903.6,2961.86 2903.6,3573.09 2903.6,3573.09C2903.6,3942.25 3203.93,4242.58 3573.09,4242.58ZM5707.71,2505.82L4000,2505.82C3882.12,2505.82 3786.55,2601.39 3786.55,2719.27L3786.55,3573.09C3786.55,3690.79 3690.79,3786.55 3573.09,3786.55C3455.39,3786.55 3359.64,3690.79 3359.64,3573.09L3359.64,2719.27C3359.64,2601.39 3264.07,2505.82 3146.18,2505.82L2292.29,2505.82C2174.64,2505.78 2078.91,2410.05 2078.91,2292.36C2078.91,2174.66 2174.66,2078.91 2292.36,2078.91L5707.64,2078.91C5825.34,2078.91 5921.09,2174.66 5921.09,2292.36C5921.09,2410.05 5825.36,2505.78 5707.71,2505.82ZM5707.7,2476.69L4000,2476.69C3866.03,2476.69 3757.42,2585.3 3757.42,2719.27L3757.42,3573.09C3757.42,3674.73 3674.73,3757.42 3573.09,3757.42C3471.45,3757.42 3388.76,3674.73 3388.76,3573.09L3388.76,2719.27C3388.76,2585.3 3280.15,2476.69 3146.18,2476.69C3146.18,2476.69 2295.48,2476.69 2292.3,2476.69C2190.7,2476.65 2108.04,2393.99 2108.04,2292.36C2108.04,2190.73 2190.73,2108.04 2292.36,2108.04C2292.36,2108.04 5707.64,2108.04 5707.64,2108.04C5809.27,2108.04 5891.96,2190.73 5891.96,2292.36C5891.96,2393.99 5809.3,2476.65 5707.7,2476.69L5707.7,2476.69Z" style="fill:rgb(194,118,4);"/>
    </g>
    <defs>
        <radialGradient id="_Radial1" cx="0" cy="0" r="1" gradientUnits="userSpaceOnUse" gradientTransform="matrix(62,10044,-10044,62,1017.51,851.545)"><stop offset="0" style="stop-color:rgb(255,153,0);stop-opacity:1"/><stop offset="1" style="stop-color:rgb(216,130,0);stop-opacity:1"/></radialGradient>
    </defs>
</svg>
