<?xml version="1.0" encoding="UTF-8" standalone="no"?>
<!DOCTYPE svg PUBLIC "-//W3C//DTD SVG 1.1//EN" "http://www.w3.org/Graphics/SVG/1.1/DTD/svg11.dtd">
<svg width="100%" height="100%" viewBox="0 0 8000 8000" version="1.1" xmlns="http://www.w3.org/2000/svg" xmlns:xlink="http://www.w3.org/1999/xlink" xml:space="preserve" xmlns:serif="http://www.serif.com/" style="fill-rule:evenodd;clip-rule:evenodd;stroke-linecap:round;stroke-linejoin:round;stroke-miterlimit:1.5;">
    <g transform="matrix(1,0,0,1,200,200)">
        <path d="M7692.77,1015.72C7692.77,827.816 7618.12,647.609 7485.26,514.742C7352.39,381.875 7172.18,307.231 6984.28,307.231C5573.27,307.231 2426.73,307.231 1015.72,307.231C827.816,307.231 647.609,381.875 514.742,514.742C381.875,647.609 307.231,827.816 307.231,1015.72L307.231,6984.28C307.231,7172.18 381.875,7352.39 514.742,7485.26C647.609,7618.12 827.816,7692.77 1015.72,7692.77L6984.28,7692.77C7172.18,7692.77 7352.39,7618.12 7485.26,7485.26C7618.12,7352.39 7692.77,7172.18 7692.77,6984.28L7692.77,1015.72ZM4000,6538C5401.69,6538 6538,5401.69 6538,4000C6538,2598.3 5401.69,1462 4000,1462C2598.3,1462 1462,2598.3 1462,4000C1462,5401.69 2598.3,6538 4000,6538ZM4000,6038C2874.44,6038 1962,5125.55 1962,4000C1962,2874.44 2874.44,1962 4000,1962C5125.55,1962 6038,2874.44 6038,4000C6038,5125.55 5125.55,6038 4000,6038ZM5087.45,4280.88C4985.91,4675.35 4675.35,4985.91 4280.88,5087.45C4147.26,5121.84 4066.7,5258.25 4101.09,5391.88C4135.49,5525.5 4271.9,5606.06 4405.52,5571.66C4975.85,5424.86 5424.86,4975.85 5571.66,4405.52C5606.06,4271.9 5525.5,4135.49 5391.88,4101.09C5258.25,4066.7 5121.84,4147.26 5087.45,4280.88ZM5405.52,3188.37C5378.57,3141.82 5349.38,3096.72 5318.12,3053.24C5237.56,2941.22 5081.21,2915.68 4969.19,2996.23C4857.17,3076.79 4831.62,3233.14 4912.18,3345.16C4933.86,3375.3 4954.09,3406.56 4972.77,3438.83C5041.89,3558.25 5194.95,3599.09 5314.37,3529.97C5433.79,3460.86 5474.63,3307.79 5405.52,3188.37Z" style="fill-opacity:0.25;stroke:rgb(159,159,159);stroke-width:1px;"/>
    </g>
    <path d="M7692.77,1015.72C7692.77,827.816 7618.12,647.609 7485.26,514.742C7352.39,381.875 7172.18,307.231 6984.28,307.231L1015.72,307.231C827.816,307.231 647.609,381.875 514.742,514.742C381.875,647.609 307.231,827.816 307.231,1015.72L307.231,6984.28C307.231,7172.18 381.875,7352.39 514.742,7485.26C647.609,7618.12 827.816,7692.77 1015.72,7692.77C2426.73,7692.77 5573.27,7692.77 6984.28,7692.77C7172.18,7692.77 7352.39,7618.12 7485.26,7485.26C7618.12,7352.39 7692.77,7172.18 7692.77,6984.28C7692.77,5573.27 7692.77,2426.73 7692.77,1015.72ZM4000,6538C5401.69,6538 6538,5401.69 6538,4000C6538,2598.3 5401.69,1462 4000,1462C2598.3,1462 1462,2598.3 1462,4000C1462,5401.69 2598.3,6538 4000,6538ZM4000,6038C2874.44,6038 1962,5125.55 1962,4000C1962,2874.44 2874.44,1962 4000,1962C5125.55,1962 6038,2874.44 6038,4000C6038,5125.55 5125.55,6038 4000,6038ZM5087.45,4280.88C4985.91,4675.35 4675.35,4985.91 4280.88,5087.45C4147.26,5121.84 4066.7,5258.25 4101.09,5391.88C4135.49,5525.5 4271.9,5606.06 4405.52,5571.66C4975.85,5424.86 5424.86,4975.85 5571.66,4405.52C5606.06,4271.9 5525.5,4135.49 5391.88,4101.09C5258.25,4066.7 5121.84,4147.26 5087.45,4280.88ZM5405.52,3188.37C5378.57,3141.82 5349.38,3096.72 5318.12,3053.24C5237.56,2941.22 5081.21,2915.68 4969.19,2996.23C4857.17,3076.79 4831.62,3233.14 4912.18,3345.16C4933.86,3375.3 4954.09,3406.56 4972.77,3438.83C5041.89,3558.25 5194.95,3599.09 5314.37,3529.97C5433.79,3460.86 5474.63,3307.79 5405.52,3188.37Z" style="fill:url(#_Radial1);"/>
    <path d="M7692.77,1015.72C7692.77,827.816 7618.12,647.609 7485.26,514.742C7352.39,381.875 7172.18,307.231 6984.28,307.231L1015.72,307.231C827.816,307.231 647.609,381.875 514.742,514.742C381.875,647.609 307.231,827.816 307.231,1015.72L307.231,6984.28C307.231,7172.18 381.875,7352.39 514.742,7485.26C647.609,7618.12 827.816,7692.77 1015.72,7692.77C2426.73,7692.77 5573.27,7692.77 6984.28,7692.77C7172.18,7692.77 7352.39,7618.12 7485.26,7485.26C7618.12,7352.39 7692.77,7172.18 7692.77,6984.28C7692.77,5573.27 7692.77,2426.73 7692.77,1015.72ZM7665.88,1015.72C7665.88,2426.73 7665.88,5573.27 7665.88,6984.28C7665.88,7165.05 7594.07,7338.42 7466.24,7466.24C7338.42,7594.07 7165.05,7665.88 6984.28,7665.88C5573.27,7665.88 2426.73,7665.88 1015.72,7665.88C834.948,7665.88 661.581,7594.07 533.757,7466.24C405.933,7338.42 334.122,7165.05 334.122,6984.28L334.122,1015.72C334.122,834.948 405.933,661.581 533.757,533.757C661.581,405.933 834.948,334.122 1015.72,334.122L6984.28,334.122C7165.05,334.122 7338.42,405.933 7466.24,533.757C7594.07,661.581 7665.88,834.948 7665.88,1015.72ZM4000,6564.89C5416.54,6564.89 6564.89,5416.54 6564.89,4000C6564.89,2583.45 5416.54,1435.11 4000,1435.11C2583.45,1435.11 1435.11,2583.45 1435.11,4000C1435.11,5416.54 2583.45,6564.89 4000,6564.89ZM4000,6538C5401.69,6538 6538,5401.69 6538,4000C6538,2598.3 5401.69,1462 4000,1462C2598.3,1462 1462,2598.3 1462,4000C1462,5401.69 2598.3,6538 4000,6538ZM4000,6038C2874.44,6038 1962,5125.55 1962,4000C1962,2874.44 2874.44,1962 4000,1962C5125.55,1962 6038,2874.44 6038,4000C6038,5125.55 5125.55,6038 4000,6038ZM4000,6011.11C2889.3,6011.11 1988.89,5110.69 1988.89,4000C1988.89,2889.3 2889.3,1988.89 4000,1988.89C5110.69,1988.89 6011.11,2889.3 6011.11,4000C6011.11,5110.69 5110.69,6011.11 4000,6011.11ZM5061.41,4274.18C4962.3,4659.19 4659.19,4962.3 4274.18,5061.41C4126.18,5099.5 4036.95,5250.58 4075.05,5398.58C4113.14,5546.57 4264.23,5635.8 4412.22,5597.71C4992.01,5448.47 5448.47,4992.01 5597.71,4412.22C5635.8,4264.23 5546.57,4113.14 5398.58,4075.05C5250.58,4036.95 5099.5,4126.18 5061.41,4274.18L5061.41,4274.18ZM5087.45,4280.88C4985.91,4675.35 4675.35,4985.91 4280.88,5087.45C4147.26,5121.84 4066.7,5258.25 4101.09,5391.88C4135.49,5525.5 4271.9,5606.06 4405.52,5571.66C4975.85,5424.86 5424.86,4975.85 5571.66,4405.52C5606.06,4271.9 5525.5,4135.49 5391.88,4101.09C5258.25,4066.7 5121.84,4147.26 5087.45,4280.88ZM5428.79,3174.9C5401.4,3127.58 5371.73,3081.74 5339.95,3037.54C5250.73,2913.47 5077.56,2885.18 4953.49,2974.4C4829.42,3063.62 4801.13,3236.79 4890.35,3360.86C4911.51,3390.28 4931.26,3420.8 4949.5,3452.3C5026.05,3584.57 5195.58,3629.8 5327.84,3553.25C5460.11,3476.7 5505.34,3307.16 5428.79,3174.9L5428.79,3174.9ZM5405.52,3188.37C5378.57,3141.82 5349.38,3096.72 5318.12,3053.24C5237.56,2941.22 5081.21,2915.68 4969.19,2996.23C4857.17,3076.79 4831.62,3233.14 4912.18,3345.16C4933.86,3375.3 4954.09,3406.56 4972.77,3438.83C5041.89,3558.25 5194.95,3599.09 5314.37,3529.97C5433.79,3460.86 5474.63,3307.79 5405.52,3188.37Z" style="fill:rgb(194,118,4);"/>
    <defs>
        <radialGradient id="_Radial1" cx="0" cy="0" r="1" gradientUnits="userSpaceOnUse" gradientTransform="matrix(62,10044,-10044,62,1017.51,851.545)"><stop offset="0" style="stop-color:rgb(255,153,0);stop-opacity:1"/><stop offset="1" style="stop-color:rgb(216,130,0);stop-opacity:1"/></radialGradient>
    </defs>
</svg>
